<?xml version="1.0" encoding="UTF-8"?>
<svg width="14px" height="14px" viewBox="0 0 14 14" version="1.1" xmlns="http://www.w3.org/2000/svg" xmlns:xlink="http://www.w3.org/1999/xlink">
    <!-- Generator: Sketch 61 (89581) - https://sketch.com -->
    <title>编组 3</title>
    <desc>Created with Sketch.</desc>
    <g id="页面-1" stroke="none" stroke-width="1" fill="none" fill-rule="evenodd">
        <g id="编组-3" fill="#FFFFFF">
            <rect id="矩形备份-4" transform="translate(2.000000, 2.000000) scale(1, -1) translate(-2.000000, -2.000000) " x="0" y="0" width="4" height="4"></rect>
            <rect id="矩形备份-13" transform="translate(2.000000, 7.000000) scale(1, -1) translate(-2.000000, -7.000000) " x="0" y="5" width="4" height="4"></rect>
            <rect id="矩形备份-16" transform="translate(2.000000, 12.000000) scale(1, -1) translate(-2.000000, -12.000000) " x="0" y="10" width="4" height="4"></rect>
            <rect id="矩形备份-14" transform="translate(7.000000, 7.000000) scale(1, -1) translate(-7.000000, -7.000000) " x="5" y="5" width="4" height="4"></rect>
            <rect id="矩形备份-6" transform="translate(12.000000, 2.000000) scale(1, -1) translate(-12.000000, -2.000000) " x="10" y="0" width="4" height="4"></rect>
            <rect id="矩形备份-15" transform="translate(12.000000, 7.000000) scale(1, -1) translate(-12.000000, -7.000000) " x="10" y="5" width="4" height="4"></rect>
            <rect id="矩形备份-18" transform="translate(12.000000, 12.000000) scale(1, -1) translate(-12.000000, -12.000000) " x="10" y="10" width="4" height="4"></rect>
        </g>
    </g>
</svg>