<svg viewBox="0 0 20 20" version="1.1" xmlns="http://www.w3.org/2000/svg" xmlns:xlink="http://www.w3.org/1999/xlink">
    <g id="Page-1" stroke="none" stroke-width="1" fill="none" fill-rule="evenodd">
        <g id="Group" transform="translate(1.5, 1.5)" fill="#fff" fill-rule="nonzero">
            <path d="M0,18.5 C-0.828427125,18.5 -1.5,17.8284271 -1.5,17 C-1.5,16.1715729 -0.828427125,15.5 0,15.5 L13.379,15.5 L-1.06066017,1.06066017 C-1.60983496,0.511485387 -1.64415838,-0.357577023 -1.16363044,-0.946737762 L-1.06066017,-1.06066017 C-0.474873734,-1.64644661 0.474873734,-1.64644661 1.06066017,-1.06066017 L15.5,13.379 L15.5,0 C15.5,-0.779696117 16.0948881,-1.42044868 16.85554,-1.49313342 L17,-1.5 C17.8284271,-1.5 18.5,-0.828427125 18.5,0 L18.5,17 C18.5,17.243655 18.4419055,17.4737414 18.3388122,17.6771632 L18.334,17.684 L18.3283829,17.6975671 L18.297,17.749 L18.2716612,17.7959117 L18.262,17.808 L18.2528713,17.8253513 L18.227,17.859 L18.1943391,17.9076322 L18.175,17.93 L18.1636304,17.9467378 L18.141,17.97 L18.1074745,18.011696 L18.079,18.039 L18.0606602,18.0606602 L18.039,18.079 L18.011696,18.1074745 L17.97,18.141 L17.9467378,18.1636304 L17.93,18.175 L17.9076322,18.1943391 L17.859,18.227 L17.8253513,18.2528713 L17.808,18.262 L17.7959117,18.2716612 L17.749,18.297 L17.6975671,18.3283829 L17.684,18.334 L17.61,18.368 L17.5644514,18.390165 C17.5093024,18.4120775 17.4656278,18.4270868 17.4210962,18.4400866 L17.326,18.462 L17.2864909,18.4725413 L17.214,18.483 L17.14446,18.4931334 L17,18.5 L0,18.5 Z" id="Shape"></path>
        </g>
    </g>
</svg>