<?xml version="1.0" encoding="UTF-8"?>
<svg width="74px" height="44px" viewBox="0 0 74 44" version="1.1" xmlns="http://www.w3.org/2000/svg" xmlns:xlink="http://www.w3.org/1999/xlink">
    <g stroke="none" stroke-width="1" fill="none" fill-rule="evenodd">
        <g id="test" fill="#ffffff" fill-rule="nonzero">
            <path d="M6.894531,42.882813 L0,42.882813 C6.285156,39.335938 6.894531,24.632813 6.894531,24.632813 C6.894531,24.632813 7.5,39.335938 13.785156,42.882813 L6.894531,42.882813"></path>
            <path d="M17.03125,0 L29.195313,27.472656 L23.113281,43.691406 L5.675781,3.546875 C5.675781,3.546875 4.15625,0.507813 1.925781,0 L17.03125,0"></path>
            <path d="M36.902344,0 L36.902344,39.636719 C36.902344,39.636719 37.003906,41.867188 34.265625,42.882813 L51.195313,42.882813 C51.195313,42.882813 48.558594,41.765625 48.558594,40.042969 C48.558594,38.320313 48.558594,3.445313 48.558594,3.445313 C48.558594,3.445313 48.050781,1.519531 51.597656,0 L36.902344,0"></path>
            <path d="M51.597656,19.464844 C51.597656,19.464844 57.984375,17.535156 57.984375,22.503906 L57.984375,39.789063 C57.984375,39.789063 57.835938,43.285156 63.816406,43.285156 C66.453125,43.285156 70.203125,43.285156 73.292969,41.460938 C73.292969,41.460938 69.441406,41.460938 69.542969,39.433594 C69.644531,37.40625 69.542969,21.648438 69.542969,21.648438 C69.542969,21.648438 69.136719,15.410156 62.445313,15.410156 C55.757813,15.410156 51.597656,19.464844 51.597656,19.464844"></path>
        </g>
    </g>
</svg>