<?xml version="1.0" encoding="UTF-8"?>
<svg width="26px" height="26px" viewBox="0 0 26 26" version="1.1" xmlns="http://www.w3.org/2000/svg" xmlns:xlink="http://www.w3.org/1999/xlink">
    <!-- Generator: Sketch 61 (89581) - https://sketch.com -->
    <title>编组</title>
    <desc>Created with Sketch.</desc>
    <g id="页面-1" stroke="none" stroke-width="1" fill="none" fill-rule="evenodd">
        <g id="编组" fill="#FFFFFF">
            <rect id="矩形备份-4" transform="translate(4.000000, 4.000000) scale(1, -1) translate(-4.000000, -4.000000) " x="0" y="0" width="8" height="8"></rect>
            <rect id="矩形备份-7" transform="translate(4.000000, 13.000000) scale(1, -1) translate(-4.000000, -13.000000) " x="0" y="9" width="8" height="8"></rect>
            <rect id="矩形备份-10" transform="translate(4.000000, 22.000000) scale(1, -1) translate(-4.000000, -22.000000) " x="0" y="18" width="8" height="8"></rect>
            <rect id="矩形备份-4" transform="translate(13.000000, 4.000000) scale(1, -1) translate(-13.000000, -4.000000) " x="9" y="0" width="8" height="8"></rect>
            <rect id="矩形备份-8" transform="translate(13.000000, 13.000000) scale(1, -1) translate(-13.000000, -13.000000) " x="9" y="9" width="8" height="8"></rect>
            <rect id="矩形备份-11" transform="translate(13.000000, 22.000000) scale(1, -1) translate(-13.000000, -22.000000) " x="9" y="18" width="8" height="8"></rect>
            <rect id="矩形备份-6" transform="translate(22.000000, 4.000000) scale(1, -1) translate(-22.000000, -4.000000) " x="18" y="0" width="8" height="8"></rect>
            <rect id="矩形备份-9" transform="translate(22.000000, 13.000000) scale(1, -1) translate(-22.000000, -13.000000) " x="18" y="9" width="8" height="8"></rect>
            <rect id="矩形备份-12" transform="translate(22.000000, 22.000000) scale(1, -1) translate(-22.000000, -22.000000) " x="18" y="18" width="8" height="8"></rect>
        </g>
    </g>
</svg>